<svg xmlns="http://www.w3.org/2000/svg" width="13" height="12" viewBox="0 0 13 12"><g><g><path fill="#fff" d="M12.433 4.154H8.189L6.9.306A.455.455 0 0 0 6.462 0a.455.455 0 0 0-.439.306l-1.29 3.848H.463a.463.463 0 0 0-.453.54c.005.1.052.213.193.325l3.487 2.458-1.338 3.891a.463.463 0 0 0 .159.52c.083.06.161.112.26.112a.565.565 0 0 0 .288-.104L6.462 9.47l3.403 2.426a.54.54 0 0 0 .289.104c.098 0 .176-.049.257-.112a.457.457 0 0 0 .158-.52L9.231 7.477l3.458-2.48.084-.073c.075-.08.15-.19.15-.309 0-.253-.236-.461-.49-.461z"/></g></g></svg>