<svg xmlns="http://www.w3.org/2000/svg" width="213" height="70" viewBox="0 0 213 70"><g><g><g><path fill="#3f3f3e" d="M62.981 0c-1.824 0-3.4.65-4.73 1.979-1.33 1.33-1.979 2.875-1.979 4.669 0 1.886.65 3.493 1.979 4.823 1.33 1.33 2.906 1.979 4.761 1.979s3.432-.65 4.73-1.98c1.33-1.329 1.98-2.906 1.98-4.76 0-1.856-.65-3.433-1.98-4.731C66.414.649 64.838 0 62.983 0z"/></g><g><g><path fill="#ff6300" d="M35.897 25.23L21.334 39.792V10.667C21.334 5.04 16.758.464 11.13.464h-.124v69.474h10.327V52.716l27.58-27.486z"/></g><g><path fill="#ff6300" d="M27.456 53.891l-1.051 1.052a.662.662 0 0 0-.062.865l11.223 13.883a.66.66 0 0 0 .526.247H51.17l-12.645-15.49c-2.783-3.432-7.946-3.68-11.07-.557z"/></g><g><path fill="#ff6300" d="M57.818 69.938V25.23h10.327v44.708z"/></g><g><path fill="#ff6300" d="M105.835 48.11c-1.794-1.887-5.318-3.958-10.513-6.184-3.772-1.608-5.689-3.216-5.689-4.854 0-.928.31-1.701.959-2.288a3.353 3.353 0 0 1 2.319-.897c1.886 0 3.463 1.298 4.761 3.927l8.132-4.33c-2.66-5.626-6.679-8.409-12.12-8.409-3.71 0-6.833 1.206-9.43 3.618-2.536 2.411-3.803 5.472-3.803 9.152 0 2.782.742 5.07 2.226 6.863 1.175 1.392 3.184 2.783 6.029 4.205 1.02.495 2.01.99 2.999 1.454.99.463 1.979.958 2.968 1.453 2.566 1.515 3.834 3.153 3.834 4.885 0 3.03-1.67 4.545-4.978 4.545-1.67 0-3.092-.557-4.267-1.67-.618-.556-1.484-1.855-2.659-3.895l-8.379 3.895C81.193 66.537 86.232 70 93.374 70c4.175 0 7.7-1.299 10.637-3.927 3.03-2.751 4.545-6.183 4.545-10.296 0-3.215-.928-5.781-2.721-7.667z"/></g></g><g><g><path fill="#3f3f3e" d="M128.22 30.671l4.947 5.937h-2.814l-4.297-5.35v5.35h-2.32V24.95h2.32v5.226l4.328-5.226h2.814z"/></g><g><path fill="#3f3f3e" d="M138.67 30.084c.433-.464 1.02-.711 1.763-.68.68 0 1.267.247 1.731.71.464.496.68 1.145.68 1.949s-.216 1.453-.68 1.917c-.432.463-1.02.71-1.731.71-.742 0-1.33-.247-1.763-.71-.432-.464-.649-1.113-.649-1.948s.217-1.484.65-1.948zm3-2.195c-.557-.371-1.206-.526-1.98-.526-.772 0-1.452.186-2.07.557-.62.37-1.114.927-1.454 1.638-.34.711-.526 1.546-.526 2.505 0 .958.186 1.793.526 2.504.34.711.835 1.268 1.453 1.639a3.924 3.924 0 0 0 2.072.556c.773 0 1.422-.185 1.979-.556.556-.371.958-.866 1.175-1.484v1.917h2.318v-9.152h-2.318v1.886c-.248-.619-.619-1.113-1.175-1.484z"/></g><g><path fill="#3f3f3e" d="M157.685 27.456v9.152h-2.318v-1.855a2.938 2.938 0 0 1-1.206 1.453 3.638 3.638 0 0 1-1.917.525c-1.052 0-1.886-.34-2.536-1.05-.618-.681-.927-1.67-.927-2.907v-5.318h2.319v5.07c0 .743.185 1.3.556 1.701.371.402.866.618 1.515.618.68 0 1.206-.216 1.608-.649.402-.433.588-1.051.588-1.855v-4.854h2.318z"/></g><g><path fill="#3f3f3e" d="M169.435 28.352c.618.68.927 1.67.927 2.938v5.318h-2.319v-5.07c0-.743-.185-1.3-.556-1.701-.371-.402-.897-.619-1.546-.619-.65 0-1.175.217-1.577.65-.402.432-.588 1.05-.588 1.855v4.854h-2.318v-9.152h2.318v1.824a2.937 2.937 0 0 1 1.206-1.453 3.638 3.638 0 0 1 1.917-.526c1.082.062 1.917.402 2.536 1.082z"/></g><g><path fill="#3f3f3e" d="M178.308 29.373c.65 0 1.175.216 1.639.68.464.433.68 1.113.68 1.979 0 .866-.216 1.515-.68 1.979-.433.463-.99.68-1.639.68s-1.175-.217-1.638-.68c-.464-.433-.68-1.113-.68-1.98 0-.865.216-1.514.68-1.978.432-.464.99-.711 1.638-.68zm0-2.04c-.896 0-1.7.185-2.411.556a4.058 4.058 0 0 0-1.67 1.638c-.402.711-.618 1.546-.618 2.505 0 .958.216 1.793.618 2.504a4.058 4.058 0 0 0 1.67 1.639c.71.37 1.515.556 2.411.556.897 0 1.7-.154 2.412-.556.711-.402 1.268-.928 1.67-1.639.402-.71.618-1.546.618-2.504 0-.959-.216-1.794-.618-2.505a4.06 4.06 0 0 0-1.67-1.638c-.711-.371-1.515-.557-2.412-.557z"/></g><g><path fill="#3f3f3e" d="M126.025 43.966v9.152h-2.32v-9.152zm-2.196-3.524c.279-.248.619-.34 1.052-.34.433 0 .773.123 1.05.34.28.247.403.556.403.927s-.124.65-.402.897-.618.34-1.051.34c-.433 0-.773-.124-1.052-.34-.278-.217-.402-.526-.402-.897 0-.402.155-.71.402-.927z"/></g><g><path fill="#3f3f3e" d="M137.774 44.894c.618.68.927 1.67.927 2.937v5.318h-2.318v-5.07c0-.742-.186-1.299-.557-1.7-.371-.403-.897-.62-1.546-.62-.65 0-1.175.217-1.577.65-.402.433-.587 1.051-.587 1.855v4.854h-2.32v-9.152h2.32v1.825a2.938 2.938 0 0 1 1.206-1.454 3.638 3.638 0 0 1 1.917-.525c1.082.03 1.917.37 2.535 1.082z"/></g><g><path fill="#3f3f3e" d="M147.328 51.14v2.01h-1.237c-1.02 0-1.824-.248-2.35-.743-.556-.494-.804-1.33-.804-2.473v-3.958h-1.267v-1.979h1.267V41.74h2.32v2.257h2.04v1.98h-2.04v3.988c0 .433.092.742.277.927.186.186.464.278.897.278h.897z"/></g><g><path fill="#3f3f3e" d="M156.943 47.986h-4.452c.031-.742.278-1.33.711-1.7.433-.403.959-.588 1.577-.588.588 0 1.113.216 1.546.587.402.371.618.959.618 1.7zm2.227 1.02c.061-.309.061-.556.123-.835 0-.834-.185-1.576-.556-2.226a3.992 3.992 0 0 0-1.577-1.546c-.68-.37-1.484-.556-2.38-.556-.898 0-1.701.185-2.382.556a3.913 3.913 0 0 0-1.607 1.639c-.402.711-.588 1.546-.588 2.504 0 .959.217 1.794.588 2.505a3.914 3.914 0 0 0 1.607 1.639c.68.37 1.484.556 2.381.556.773 0 1.453-.155 2.072-.433a4.09 4.09 0 0 0 1.515-1.175c.402-.525.649-1.082.773-1.731h-2.474c-.093.464-.31.804-.68 1.082-.371.278-.835.402-1.36.402a2.208 2.208 0 0 1-1.516-.588c-.401-.37-.618-.989-.649-1.793h6.71z"/></g><g><path fill="#3f3f3e" d="M166.219 44.337c.556-.34 1.175-.494 1.886-.494v2.504h-.68c-1.7 0-2.567.804-2.567 2.38v4.422h-2.318v-9.152h2.318v1.763c.372-.619.804-1.082 1.36-1.423z"/></g><g><path fill="#3f3f3e" d="M179.05 44.894c.619.68.928 1.67.928 2.937v5.318h-2.32v-5.07c0-.742-.185-1.299-.556-1.7-.37-.403-.896-.62-1.546-.62-.649 0-1.174.217-1.576.65-.402.433-.588 1.051-.588 1.855v4.854h-2.319v-9.152h2.32v1.825a2.938 2.938 0 0 1 1.205-1.454 3.638 3.638 0 0 1 1.917-.525c1.051.03 1.886.37 2.535 1.082z"/></g><g><path fill="#3f3f3e" d="M189.934 47.986h-4.453c.031-.742.279-1.33.712-1.7.432-.403.958-.588 1.576-.588.619 0 1.144.216 1.577.587.433.371.619.959.588 1.7zm2.288 1.02zm0 0a6.77 6.77 0 0 1 .123-.835c0-.834-.185-1.576-.556-2.226a3.991 3.991 0 0 0-1.577-1.546c-.68-.37-1.484-.556-2.38-.556-.898 0-1.701.185-2.382.556a3.913 3.913 0 0 0-1.607 1.639c-.402.711-.588 1.546-.588 2.504 0 .959.217 1.794.588 2.505.37.711.927 1.267 1.607 1.639.68.37 1.484.556 2.381.556.742 0 1.453-.155 2.072-.433a4.092 4.092 0 0 0 1.515-1.175c.402-.525.65-1.082.773-1.731h-2.474c-.093.464-.309.804-.68 1.082-.371.278-.835.402-1.36.402a2.207 2.207 0 0 1-1.515-.588c-.402-.37-.619-.989-.65-1.793z"/></g><g><path fill="#3f3f3e" d="M200.477 51.14v2.01h-1.237c-1.02 0-1.824-.248-2.35-.743-.556-.494-.804-1.33-.804-2.473v-3.958h-1.267v-1.979h1.267V41.74h2.32v2.257h2.04v1.98h-2.04v3.988c0 .433.092.742.278.927.185.186.463.278.896.278h.897z"/></g><g><path fill="#3f3f3e" d="M208.021 45.883c.65 0 1.175.217 1.639.68.464.433.68 1.114.68 1.98 0 .865-.216 1.514-.68 1.978-.433.464-.99.68-1.639.68-.65 0-1.175-.216-1.639-.68-.463-.433-.68-1.113-.68-1.979 0-.865.217-1.515.68-1.978a2.243 2.243 0 0 1 1.64-.68zm0-2.01c-.897 0-1.7.186-2.412.557a4.058 4.058 0 0 0-1.67 1.639c-.401.711-.618 1.546-.618 2.504 0 .959.217 1.794.619 2.505a4.059 4.059 0 0 0 1.67 1.638c.71.371 1.514.557 2.411.557s1.7-.186 2.412-.557c.71-.402 1.267-.927 1.67-1.638.401-.711.618-1.546.618-2.505 0-.958-.217-1.793-.619-2.504a4.058 4.058 0 0 0-1.67-1.639c-.71-.37-1.514-.556-2.41-.556z"/></g><g><path fill="#3f3f3e" d="M129.519 61.22c.68.556 1.082 1.298 1.267 2.256h-2.164c-.093-.433-.278-.804-.588-1.051-.309-.278-.71-.402-1.205-.402-.402 0-.711.093-.928.278-.216.186-.34.433-.34.773 0 .248.093.464.278.619.186.154.402.278.65.37.278.093.649.186 1.144.31.68.154 1.267.309 1.7.494.433.186.804.433 1.113.804.31.371.464.866.464 1.485 0 .772-.31 1.422-.928 1.886-.618.494-1.422.742-2.473.742-1.206 0-2.134-.279-2.845-.804-.71-.526-1.144-1.299-1.298-2.288h2.226c.062.464.247.804.587 1.051.34.247.773.402 1.33.402.402 0 .711-.093.896-.278.217-.186.31-.433.31-.742a.842.842 0 0 0-.279-.65 2.041 2.041 0 0 0-.68-.37c-.278-.093-.65-.186-1.144-.31-.68-.154-1.237-.31-1.67-.464a2.423 2.423 0 0 1-1.082-.773c-.309-.34-.463-.834-.463-1.453 0-.804.309-1.422.896-1.948.619-.494 1.453-.742 2.505-.742 1.175-.03 2.071.248 2.72.804z"/></g><g><path fill="#3f3f3e" d="M136.63 60.508v9.152h-2.32v-9.152zm-2.196-3.556c.279-.247.619-.34 1.052-.34.433 0 .773.124 1.05.34.28.248.403.557.403.928 0 .37-.124.65-.402.896-.278.248-.618.34-1.051.34-.433 0-.773-.123-1.052-.34a1.114 1.114 0 0 1-.401-.896c0-.371.123-.68.401-.928z"/></g><g><path fill="#3f3f3e" d="M146.215 61.22c.68.556 1.082 1.298 1.267 2.256h-2.195c-.093-.433-.278-.804-.587-1.051-.31-.278-.712-.402-1.206-.402-.402 0-.711.093-.928.278-.216.186-.34.433-.34.773 0 .248.093.464.278.619.186.154.402.278.65.37.278.093.649.186 1.144.31.68.154 1.267.309 1.7.494.433.186.804.433 1.113.804.31.371.464.866.464 1.485 0 .772-.31 1.422-.928 1.886-.618.494-1.422.742-2.473.742-1.206 0-2.133-.279-2.845-.804-.71-.526-1.144-1.299-1.298-2.288h2.226c.062.464.247.804.587 1.051.34.247.773.402 1.33.402.402 0 .711-.093.897-.278.216-.186.309-.433.309-.742a.842.842 0 0 0-.278-.65 2.041 2.041 0 0 0-.68-.37c-.279-.093-.65-.186-1.145-.31-.68-.154-1.236-.31-1.67-.464a2.423 2.423 0 0 1-1.081-.773c-.31-.34-.464-.834-.464-1.453 0-.804.309-1.422.896-1.948.619-.494 1.454-.742 2.505-.742 1.206-.03 2.102.248 2.752.804z"/></g><g><path fill="#3f3f3e" d="M155.861 67.65v2.01h-1.236c-1.02 0-1.825-.247-2.35-.742-.526-.495-.804-1.33-.804-2.474v-3.988h-1.268v-1.979h1.268V58.22h2.319v2.257h2.04v1.979h-2.04v4.02c0 .432.092.741.278.927.185.185.464.278.897.278h.896z"/></g><g><path fill="#3f3f3e" d="M164.859 62.796c.432.402.618.958.587 1.7h-4.452c.03-.742.278-1.329.71-1.7.434-.402.96-.588 1.578-.588.618 0 1.144.217 1.577.588zm2.875 2.72c.03-.278.062-.556.124-.834 0-.835-.186-1.577-.557-2.226a3.991 3.991 0 0 0-1.577-1.546c-.68-.371-1.484-.557-2.38-.557-.897 0-1.7.186-2.381.557a3.914 3.914 0 0 0-1.608 1.639c-.402.71-.587 1.546-.587 2.504s.216 1.793.587 2.504a3.914 3.914 0 0 0 1.608 1.639c.68.371 1.484.557 2.38.557a5.07 5.07 0 0 0 2.072-.433 4.092 4.092 0 0 0 1.515-1.175c.402-.526.65-1.082.773-1.732h-2.473c-.093.464-.31.804-.68 1.083-.372.278-.835.401-1.361.401a2.208 2.208 0 0 1-1.515-.587c-.402-.371-.618-.99-.65-1.793z"/></g><g><path fill="#3f3f3e" d="M185.389 61.405c.649.68.958 1.67.958 2.937v5.318h-2.319v-5.07c0-.712-.185-1.238-.525-1.64-.371-.37-.866-.556-1.485-.556-.649 0-1.174.216-1.545.618s-.588.99-.588 1.794v4.854h-2.319v-5.07c0-.712-.185-1.238-.525-1.64-.372-.37-.866-.556-1.485-.556-.649 0-1.174.216-1.545.618-.372.402-.588.99-.588 1.794v4.854h-2.319v-9.152h2.32v1.731a2.978 2.978 0 0 1 1.143-1.39c.526-.341 1.144-.496 1.824-.496.742 0 1.392.186 1.917.526.526.34.959.866 1.237 1.515a3.48 3.48 0 0 1 1.268-1.484c.556-.371 1.205-.557 1.917-.557 1.144.031 2.01.371 2.659 1.052z"/></g><g><path fill="#3f3f3e" d="M194.262 62.425c.65 0 1.175.216 1.64.68.463.433.68 1.113.68 1.979 0 .866-.248 1.515-.68 1.979-.434.463-.99.68-1.64.68-.649 0-1.175-.217-1.638-.68-.464-.433-.68-1.113-.68-1.98 0-.865.216-1.514.68-1.978.463-.464 1.02-.711 1.638-.68zm.031-2.04c-.896 0-1.7.185-2.411.556a4.059 4.059 0 0 0-1.67 1.638c-.402.712-.618 1.546-.618 2.505 0 .958.216 1.793.618 2.504a4.059 4.059 0 0 0 1.67 1.639c.71.371 1.515.557 2.411.557.897 0 1.7-.186 2.412-.557.711-.402 1.268-.928 1.67-1.639.402-.71.618-1.546.618-2.504 0-.959-.216-1.793-.618-2.505a4.058 4.058 0 0 0-1.67-1.638c-.711-.371-1.515-.557-2.412-.557z"/></g><g><path fill="#3f3f3e" d="M208.114 61.22c.68.556 1.082 1.298 1.268 2.256h-2.196c-.092-.433-.278-.804-.587-1.051-.31-.278-.711-.402-1.206-.402-.402 0-.711.093-.927.278-.217.186-.34.433-.34.773 0 .248.092.464.278.619.185.154.402.278.649.37.278.093.65.186 1.144.31.68.154 1.268.309 1.7.494.433.186.804.433 1.114.804.309.371.463.866.463 1.485 0 .772-.309 1.422-.927 1.886-.619.494-1.423.742-2.474.742-1.206 0-2.133-.279-2.844-.804-.711-.526-1.144-1.299-1.299-2.288h2.226c.062.464.248.804.588 1.051.34.247.773.402 1.33.402.401 0 .71-.093.896-.278.216-.186.31-.433.31-.742a.842.842 0 0 0-.28-.65 2.04 2.04 0 0 0-.68-.37c-.278-.093-.649-.186-1.143-.31-.68-.154-1.237-.31-1.67-.464a2.424 2.424 0 0 1-1.082-.773c-.31-.34-.464-.834-.464-1.453 0-.804.31-1.422.897-1.948.618-.494 1.453-.742 2.504-.742 1.206-.03 2.103.248 2.752.804z"/></g></g><g><g><path fill="#3f3f3e" d="M2.072 66.908c-.464 0-.68.217-.68.619 0 .216.092.401.247.494.154.093.402.155.742.186v1.453c-.742-.031-1.268-.247-1.639-.68-.371-.402-.556-.928-.556-1.577 0-.65.154-1.175.494-1.515.34-.34.742-.495 1.268-.495.587 0 1.144.217 1.7.68.557.464 1.02.99 1.423 1.639V65.3h1.175v4.36H5.163c-1.33-1.855-2.35-2.752-3.091-2.752z"/></g><g><path fill="#3f3f3e" d="M4.452 61.466c.279.124.433.402.433.773s-.154.65-.433.773c-.278.124-.71.186-1.236.186s-.959-.062-1.237-.186c-.278-.123-.433-.37-.433-.773 0-.402.155-.649.433-.773.278-.123.71-.185 1.237-.185.525 0 .958.062 1.236.185zm.99 2.629c.556-.402.835-1.02.835-1.856 0-.834-.279-1.453-.835-1.855-.557-.402-1.299-.587-2.226-.587-.959 0-1.67.185-2.227.587-.525.402-.804 1.02-.804 1.855s.248 1.454.804 1.856c.557.401 1.299.587 2.227.587.927 0 1.67-.216 2.226-.587z"/></g><g><path fill="#3f3f3e" d="M.34 50.305h5.936v1.484h-3.71l3.71 1.33v1.298l-3.71 1.33h3.71v1.484H.34v-1.825l4.143-1.67L.34 52.13z"/></g><g><path fill="#3f3f3e" d="M1.422 47.8H2.66V45.73h1.082V47.8h1.33v-2.319h1.144v3.803H.247v-3.803h1.144v2.32z"/></g><g><path fill="#3f3f3e" d="M.278 40.225h1.144v1.67h4.824v1.484H1.422v1.639H.278z"/></g><g><path fill="#3f3f3e" d="M7.266 37.319a.94.94 0 0 1-.742.34.281.281 0 0 1-.248-.124c-.123.588-.401 1.052-.834 1.392-.433.37-.99.556-1.7.556H.277V38h3.463c.402 0 .711-.093.897-.278.216-.186.309-.433.309-.804 0-.34-.093-.618-.31-.804-.216-.185-.494-.278-.927-.278H.247V34.35H3.71c.464 0 .866.092 1.237.247.34.186.618.402.835.68.216.279.34.588.433.928.061.247.154.402.309.402.154 0 .247-.124.247-.402v-.959h.742v1.299c.031.278-.062.556-.247.773z"/></g><g><path fill="#3f3f3e" d="M3.216 28.63l3.06-2.473v1.794l-2.69 2.071h2.69v1.484H.31v-1.484h2.628L.31 27.92v-1.794z"/></g><g><path fill="#3f3f3e" d="M4.081 23.653l-2.195-.773 2.195-.773zm2.165-2.35v-1.577L.309 21.983v1.7l5.937 2.258v-1.546l-1.083-.371v-2.288z"/></g><g><path fill="#3f3f3e" d="M1.515 17.716v-.927c0-.278.093-.495.216-.65.124-.154.31-.216.557-.216.247 0 .433.093.557.217.123.123.185.34.185.649v.927zm4.792-1.67V14.44l-2.35 1.453c-.092-.494-.309-.835-.618-1.082a1.726 1.726 0 0 0-1.113-.371 2.04 2.04 0 0 0-.99.247 1.598 1.598 0 0 0-.68.742c-.154.34-.247.742-.247 1.237v2.536h5.967v-1.485H4.02v-.34l2.257-1.33z"/></g><g><path fill="#3f3f3e" d="M.278 9.276h1.144v1.67h4.824v1.483H1.422v1.639H.278z"/></g><g><path fill="#3f3f3e" d="M.278 7.204h3.463c.402 0 .711-.093.897-.278.216-.186.309-.433.309-.804 0-.34-.093-.618-.31-.804-.216-.185-.525-.278-.896-.278H.278V3.556h3.463c.557 0 1.051.123 1.422.34.371.216.68.525.866.927a3.1 3.1 0 0 1 .278 1.33c0 .495-.092.927-.278 1.298-.185.371-.495.68-.866.897-.402.216-.865.31-1.422.31H.278z"/></g><g><path fill="#3f3f3e" d="M4.823 2.164h1.453V.618H4.823zM0 2.226l4.143-.185V.773L0 .587z"/></g></g></g></g></svg>