<svg xmlns="http://www.w3.org/2000/svg" width="80" height="80" viewBox="0 0 80 80"><g><g><g><g><g><path fill="#767676" d="M38.458 76.875H3.125V73.75h6.484a1.562 1.562 0 1 0 0-3.125H3.182c.525-5.268 4.657-9.487 9.884-10.151l6.62 6.62a1.563 1.563 0 0 0 2.21 0l6.62-6.62c5.598.711 9.941 5.5 9.941 11.288zM24.192 60.379l-3.4 3.401-3.402-3.4zM13.893 47.913h10.474a6.406 6.406 0 0 0 3.322-.924v3.367a6.906 6.906 0 0 1-6.898 6.898 6.906 6.906 0 0 1-6.898-6.898zm0-5.207a4.884 4.884 0 0 1 4.879-4.878h8.917v3.638a3.326 3.326 0 0 1-3.321 3.322H13.893zm14.5 14.609a1.563 1.563 0 0 0-.344-.057 9.985 9.985 0 0 0 2.765-6.902v-8.22a1.58 1.58 0 0 0-.017-.221c.01-.149.017-.298.017-.449v-5.2c0-.864-.7-1.563-1.562-1.563h-10.48c-4.414 0-8.004 3.59-8.004 8.003v7.65a9.985 9.985 0 0 0 2.766 6.902 1.56 1.56 0 0 0-.345.057C5.805 57.983 0 64.207 0 71.762v6.675C0 79.3.7 80 1.563 80H40.02c.863 0 1.562-.7 1.562-1.563v-6.675c0-7.555-5.804-13.779-13.188-14.447z"/></g></g></g><g><g><g><path fill="#767676" d="M66.107 6.763a3.326 3.326 0 0 1-3.322 3.322H52.311V8.004a4.884 4.884 0 0 1 4.878-4.879h8.918zm0 8.89a6.906 6.906 0 0 1-6.898 6.898 6.906 6.906 0 0 1-6.898-6.898V13.21h10.474a6.407 6.407 0 0 0 3.322-.924zm-6.898 13.424l-3.4-3.4h6.8zm7.603-6.465a1.563 1.563 0 0 0-.346-.056 9.985 9.985 0 0 0 2.766-6.903v-8.22c0-.075-.007-.149-.017-.22.01-.15.017-.299.017-.45v-5.2C69.232.7 68.532 0 67.669 0H57.19c-4.413 0-8.003 3.59-8.003 8.004v7.65a9.985 9.985 0 0 0 2.765 6.901 1.566 1.566 0 0 0-.345.057c-7.384.669-13.188 6.893-13.188 14.447v6.676c0 .863.699 1.562 1.562 1.562h12.572a1.562 1.562 0 1 0 0-3.125h-11.01V37.06c0-5.787 4.343-10.576 9.941-11.288l6.62 6.62c.306.306.706.459 1.106.459.4 0 .8-.153 1.104-.458l6.621-6.62c5.598.71 9.941 5.5 9.941 11.287v5.113h-11.51a1.562 1.562 0 1 0 0 3.125h13.073c.862 0 1.562-.7 1.562-1.562v-6.676c0-7.554-5.805-13.778-13.188-14.447z"/></g></g></g><g><g><g><path fill="#ff6300" d="M60.314 42.63a1.574 1.574 0 0 0-1.105-.458c-.412 0-.814.167-1.104.458-.293.29-.458.693-.458 1.104a1.565 1.565 0 0 0 1.562 1.563c.411 0 .814-.166 1.105-.458.29-.29.458-.692.458-1.105 0-.41-.167-.814-.458-1.104z"/></g></g></g><g><g><g><path fill="#ff6300" d="M33.524 21.406c-.728 0-1.36.503-1.523 1.212a4.662 4.662 0 0 1-4.566 3.632H7.812a4.693 4.693 0 0 1-4.687-4.688V7.813a4.693 4.693 0 0 1 4.687-4.687h19.623a4.693 4.693 0 0 1 4.687 4.688v8.164c0 .414.165.811.458 1.104l4.325 4.325zm8.258.458l-6.534-6.535V7.813C35.248 3.505 31.743 0 27.435 0H7.813C3.505 0 0 3.505 0 7.813v13.75c0 4.307 3.505 7.812 7.813 7.812h19.622a7.769 7.769 0 0 0 7.229-4.844h6.013a1.563 1.563 0 0 0 1.105-2.667z"/></g></g></g><g><g><g><path fill="#ff6300" d="M76.875 72.188a4.693 4.693 0 0 1-4.687 4.687H52.565a4.693 4.693 0 0 1-4.687-4.688v-8.164c0-.414-.165-.811-.458-1.104l-4.325-4.325h3.381c.728 0 1.36-.503 1.523-1.212a4.662 4.662 0 0 1 4.566-3.632h19.623a4.693 4.693 0 0 1 4.687 4.687zm-4.687-21.563H52.565a7.769 7.769 0 0 0-7.229 4.844h-6.013a1.563 1.563 0 0 0-1.105 2.667l6.535 6.535v7.517c0 4.307 3.504 7.812 7.812 7.812h19.623C76.495 80 80 76.495 80 72.188v-13.75c0-4.308-3.505-7.813-7.812-7.813z"/></g></g></g><g><g><g><path fill="#ff6300" d="M69.4 61.155c-.61-.61-1.6-.61-2.21 0l-4.154 4.154-1.931-1.932a1.563 1.563 0 0 0-2.21 2.21l3.036 3.036c.305.305.705.458 1.105.458s.8-.153 1.105-.458l5.258-5.258c.61-.61.61-1.6 0-2.21z"/></g></g></g><g><g><g><path fill="#ff6300" d="M24.727 10.354a5.43 5.43 0 0 0-5.024-5.023 5.373 5.373 0 0 0-4.076 1.443 5.437 5.437 0 0 0-1.722 3.961 1.563 1.563 0 0 0 3.125 0c0-.642.26-1.237.73-1.676a2.293 2.293 0 0 1 3.85 1.51 2.283 2.283 0 0 1-1.783 2.403 2.624 2.624 0 0 0-2.067 2.573v.834a1.562 1.562 0 1 0 3.125 0v-.455a5.388 5.388 0 0 0 3.842-5.57z"/></g></g></g><g><g><g><path fill="#ff6300" d="M20.428 21.253a1.574 1.574 0 0 0-1.105-.458c-.412 0-.814.167-1.104.458-.292.29-.458.694-.458 1.105 0 .41.166.814.458 1.105.29.29.692.457 1.104.457.411 0 .814-.167 1.105-.458.29-.29.458-.693.458-1.104 0-.411-.167-.814-.458-1.105z"/></g></g></g><g><g><g><path fill="#ff6300" d="M16.964 71.083a1.574 1.574 0 0 0-1.105-.458c-.41 0-.814.167-1.104.458-.29.29-.458.694-.458 1.104 0 .411.167.815.458 1.105.29.29.693.458 1.104.458.411 0 .814-.167 1.105-.458.29-.29.458-.694.458-1.104 0-.411-.167-.815-.458-1.105z"/></g></g></g></g></g></svg>