<svg xmlns="http://www.w3.org/2000/svg" width="93" height="80" viewBox="0 0 93 80"><g><g><g><g><path fill="#ff6300" d="M10.77 6.154H7.691c-.85 0-1.538.689-1.538 1.538v3.077H9.23V9.231h1.538z"/></g><g><path fill="#ff6300" d="M86.154 10.77V7.691c0-.85-.689-1.538-1.539-1.538h-3.077V9.23h1.539v1.538z"/></g><g><path fill="#ff6300" d="M6.154 41.538v3.077c0 .85.689 1.539 1.538 1.539h3.077v-3.077H9.231v-1.539z"/></g><g><path fill="#ff6300" d="M43.176 36.923h3.077V40h-3.077z"/></g><g><path fill="#ff6300" d="M44.715 29.23a9.256 9.256 0 0 0-9.047 7.387l3.016.612a6.156 6.156 0 0 1 12.061 0l3.016-.612a9.257 9.257 0 0 0-9.046-7.386z"/></g><g><path fill="#ff6300" d="M44.715 26.154a12.247 12.247 0 0 1 11.029 6.838l2.755-1.37a15.39 15.39 0 0 0-27.569 0l2.755 1.37a12.246 12.246 0 0 1 11.03-6.838z"/></g><g><path fill="#767676" d="M86.923 43.077H60.77a5.39 5.39 0 0 0-5.384 5.385v26.153A5.39 5.39 0 0 0 60.769 80h26.154a5.39 5.39 0 0 0 5.385-5.385v-2.307H89.23v2.307a2.31 2.31 0 0 1-2.308 2.308H60.77a2.31 2.31 0 0 1-2.307-2.308V48.462a2.31 2.31 0 0 1 2.307-2.308h26.154a2.31 2.31 0 0 1 2.308 2.308V69.23h3.077V48.46a5.39 5.39 0 0 0-5.385-5.384z"/></g><g><path fill="#ff6300" d="M70.77 69.23V58.463h4.615v-3.077H63.077v3.077h4.615V69.23z"/></g><g><path fill="#ff6300" d="M78.462 69.23c.484 0 .94-.227 1.23-.615l4.616-6.153-2.462-1.847-3.384 4.513-3.385-4.513-2.462 1.847 4.616 6.153c.29.388.746.616 1.23.616z"/></g><g><path fill="#767676" d="M49.23 63.626a6.146 6.146 0 0 0-9.23 0V48.462a2.31 2.31 0 0 1 2.308-2.308h4.615a2.31 2.31 0 0 1 2.308 2.308zm-7.692 4.066a3.077 3.077 0 1 1 6.154 0 3.077 3.077 0 0 1-6.154 0zm7.693 6.923a2.31 2.31 0 0 1-2.308 2.308h-4.615A2.31 2.31 0 0 1 40 74.615v-2.857a6.146 6.146 0 0 0 9.23 0zm-2.308-31.538h-4.615a5.39 5.39 0 0 0-5.385 5.385v26.153A5.39 5.39 0 0 0 42.308 80h4.615a5.39 5.39 0 0 0 5.385-5.385V48.462a5.39 5.39 0 0 0-5.385-5.385z"/></g><g><path fill="#ff6300" d="M41.538 55.385h6.154v3.077h-6.154z"/></g><g><path fill="#ff6300" d="M43.077 49.23h3.077v3.078h-3.077z"/></g><g><path fill="#767676" d="M10.77 63.44l2.488-4.978h4.253L20 63.44v1.175h-9.23zM3.076 3.462c0-.213.172-.385.385-.385h7.307V0H3.462A3.466 3.466 0 0 0 0 3.462V55a3.466 3.466 0 0 0 3.462 3.462h6.356l-1.963 3.927c-.107.213-.163.449-.163.688v1.538H5.385A5.39 5.39 0 0 0 0 70v2.308c0 .85.689 1.538 1.538 1.538h32.308V70.77H3.076V70a2.31 2.31 0 0 1 2.309-2.308h28.461v-3.077h-10.77v-1.538c0-.24-.055-.475-.162-.688l-1.963-3.927h12.895v-3.077H3.462a.385.385 0 0 1-.385-.366V52.308h30.77V49.23H3.076z"/></g><g><path fill="#767676" d="M88.846 0h-75v3.077h75c.213 0 .385.172.385.385V40h3.077V3.462A3.466 3.466 0 0 0 88.846 0z"/></g><g><path fill="#ff6300" d="M60 47.692h3.077v3.077H60z"/></g><g><path fill="#ff6300" d="M84.615 47.692h3.077v3.077h-3.077z"/></g><g><path fill="#ff6300" d="M60 72.308h3.077v3.077H60z"/></g><g><path fill="#ff6300" d="M84.615 72.308h3.077v3.077h-3.077z"/></g></g></g></g></svg>