<svg xmlns="http://www.w3.org/2000/svg" width="80" height="69" viewBox="0 0 80 69"><g><g><g><path fill="#ff6300" d="M12.805 14.39a1.557 1.557 0 0 0 1.114-.466 1.563 1.563 0 0 0-2.187-2.233l-.033.033a1.563 1.563 0 0 0 1.106 2.666z"/></g><g><path fill="#767676" d="M71.937 58.453a3.831 3.831 0 0 1-2.34 1.803 3.833 3.833 0 0 1-2.928-.38 3.863 3.863 0 0 1-1.425-5.266 28.967 28.967 0 0 0 2.405-5.368l1.904.311a1.558 1.558 0 0 0 1.762-1.138 1.563 1.563 0 0 0-.957-1.866l-1.809-.684a29.51 29.51 0 0 0 .553-4.28h7.752c-.238 5.903-1.899 11.641-4.917 16.868zm-5.964-31.621l6.74-3.892a36.915 36.915 0 0 1 3.852 12.275 37.93 37.93 0 0 1 .284 3.245h-7.744c-.04-.75-.107-1.5-.205-2.248a29.034 29.034 0 0 0-2.927-9.38zm-10.07-11.227l3.888-6.736a37.202 37.202 0 0 1 6.3 5.063 36.975 36.975 0 0 1 5.059 6.302l-6.74 3.892a29.144 29.144 0 0 0-3.81-4.703 29.405 29.405 0 0 0-4.698-3.818zm-32.988-8.3a36.608 36.608 0 0 1 15.523-4.146v7.774a28.933 28.933 0 0 0-11.636 3.104zM41.563 3.16a36.644 36.644 0 0 1 15.523 4.143l-3.888 6.734a28.933 28.933 0 0 0-11.635-3.104zm5.482 39.549l-.012-.003-7.578-1.238c-.362-.059-.59-.308-.72-.507a1.711 1.711 0 0 1-.208-1.332 1.71 1.71 0 0 1 .846-1.048c.14-.072.33-.14.542-.14.107 0 .22.017.335.06l7.16 2.71.046.016 7.205 2.726zm-11.591 1.865a6.44 6.44 0 0 1 0-9.097 6.44 6.44 0 0 1 9.097 0c.527.526.95 1.13 1.262 1.788l-4.457-1.686c-1.104-.418-2.315-.34-3.409.221a4.86 4.86 0 0 0-2.44 3.021 4.86 4.86 0 0 0 .603 3.836c.667 1.032 1.676 1.706 2.84 1.896l4.702.768c-2.504 1.728-5.97 1.48-8.198-.747zM11.1 36.21a28.702 28.702 0 0 0-.205 2.249H3.152A37.052 37.052 0 0 1 7.3 22.948l6.727 3.884a29.048 29.048 0 0 0-2.926 9.38zm3.654 18.396c.514.894.649 1.934.38 2.93a3.836 3.836 0 0 1-1.803 2.339 3.835 3.835 0 0 1-2.93.38 3.838 3.838 0 0 1-2.341-1.806c-3.016-5.224-4.676-10.962-4.915-16.864h7.753a29.306 29.306 0 0 0 3.856 13.02zm64.908-19.8c-1.146-8.704-5.181-16.902-11.363-23.084C60.74 4.163 50.69 0 40 0c-8.354 0-16.353 2.543-23.132 7.355a1.563 1.563 0 0 0 1.81 2.549c.504-.358 1.015-.701 1.533-1.031l3.887 6.732a29.405 29.405 0 0 0-4.697 3.818 29.161 29.161 0 0 0-3.81 4.702L8.86 20.24a36.573 36.573 0 0 1 2.284-3.208 1.563 1.563 0 0 0-2.445-1.947 40.044 40.044 0 0 0-8.36 19.723C-.806 43.48.977 52.431 5.352 60.01a6.937 6.937 0 0 0 4.235 3.263 6.946 6.946 0 0 0 5.301-.687 6.939 6.939 0 0 0 3.263-4.235 6.94 6.94 0 0 0-.689-5.304c-2.89-5.008-4.02-10.688-3.264-16.428.752-5.707 3.315-10.888 7.412-14.986 4.912-4.912 11.443-7.616 18.39-7.616 6.946 0 13.477 2.704 18.389 7.616 4.097 4.097 6.66 9.28 7.411 14.986.362 2.746.29 5.479-.197 8.131l-16.145-6.107a9.515 9.515 0 0 0-2.697-5.377c-3.727-3.727-9.791-3.727-13.518 0-3.727 3.727-3.727 9.791 0 13.518a9.528 9.528 0 0 0 6.759 2.795 9.526 9.526 0 0 0 7.5-3.629l17.031 2.783a26.315 26.315 0 0 1-1.999 4.316c-1.918 3.34-.763 7.618 2.577 9.536a6.936 6.936 0 0 0 5.301.688 6.937 6.937 0 0 0 4.233-3.26c4.377-7.581 6.16-16.533 5.017-25.205z"/></g><g><path fill="#ff6300" d="M47.814 60.39H32.187v-1.875h15.627zm1.562-5H30.624c-.863 0-1.563.7-1.563 1.562v5.001c0 .863.7 1.562 1.563 1.562h18.752c.863 0 1.563-.699 1.563-1.562v-5c0-.864-.7-1.563-1.563-1.563z"/></g><g><path fill="#ff6300" d="M16.903 38.46a1.562 1.562 0 1 0 0 3.125h.037a1.562 1.562 0 1 0 0-3.125z"/></g><g><path fill="#ff6300" d="M29.826 19.271l-.019-.032a1.563 1.563 0 0 0-2.706 1.564l.018.031a1.562 1.562 0 1 0 2.707-1.563z"/></g><g><path fill="#ff6300" d="M51.531 21.619c.54 0 1.065-.28 1.355-.782l.018-.032a1.563 1.563 0 1 0-2.706-1.563l-.019.032a1.562 1.562 0 0 0 1.352 2.345z"/></g><g><path fill="#ff6300" d="M63.098 41.59a1.562 1.562 0 1 0 0-3.125h-.037a1.563 1.563 0 0 0 0 3.126z"/></g><g><path fill="#ff6300" d="M34.567 65.079h-.036a1.562 1.562 0 1 0 0 3.125h.036a1.563 1.563 0 1 0 0-3.125z"/></g><g><path fill="#ff6300" d="M45.47 65.079h-6.413a1.563 1.563 0 0 0 0 3.125h6.413a1.563 1.563 0 0 0 0-3.125z"/></g></g></g></svg>