<svg xmlns="http://www.w3.org/2000/svg" width="80" height="63" viewBox="0 0 80 63"><g><g><g><path fill="#ff6300" d="M6.184 7.358a1.179 1.179 0 0 0 1.174-1.174A1.178 1.178 0 0 0 6.184 5.01 1.179 1.179 0 0 0 5.01 6.184a1.178 1.178 0 0 0 1.174 1.174z"/></g><g><path fill="#ff6300" d="M9.941 7.358a1.179 1.179 0 0 0 1.174-1.174A1.178 1.178 0 0 0 9.941 5.01a1.179 1.179 0 0 0-1.174 1.174 1.178 1.178 0 0 0 1.174 1.174z"/></g><g><path fill="#ff6300" d="M13.699 7.358a1.178 1.178 0 0 0 1.174-1.174 1.178 1.178 0 0 0-1.174-1.174 1.176 1.176 0 0 0-.83 2.004c.217.219.521.344.83.344z"/></g><g><path fill="#ff6300" d="M18.708 7.358h47.593a1.174 1.174 0 0 0 0-2.348H18.708a1.174 1.174 0 0 0 0 2.348z"/></g><g><path fill="#ff6300" d="M71.311 7.358h2.505a1.174 1.174 0 0 0 0-2.348h-2.505a1.174 1.174 0 0 0 0 2.348z"/></g><g><path fill="#767676" d="M35.069 24.97a.078.078 0 0 1-.079.079H9.941a.078.078 0 0 1-.078-.078v-5.01c0-.043.035-.078.078-.078h25.05c.042 0 .078.035.078.078zm-.079-7.436H9.941a2.43 2.43 0 0 0-2.426 2.427v5.01a2.43 2.43 0 0 0 2.426 2.426h25.05a2.43 2.43 0 0 0 2.426-2.426v-5.01a2.43 2.43 0 0 0-2.427-2.427z"/></g><g><path fill="#ff6300" d="M60.04 23.796c-.735 0-1.332-.596-1.332-1.33 0-.734.597-1.331 1.331-1.331s1.33.597 1.33 1.33c0 .735-.596 1.331-1.33 1.331zm11.271-2.504h-7.786a3.685 3.685 0 0 0-3.486-2.505 3.685 3.685 0 0 0-3.486 2.505h-2.776a1.174 1.174 0 0 0 0 2.348h2.776a3.685 3.685 0 0 0 3.486 2.505 3.685 3.685 0 0 0 3.486-2.505h7.786a1.174 1.174 0 0 0 0-2.348z"/></g><g><path fill="#767676" d="M45.01 25.049a2.586 2.586 0 0 1-2.583-2.583 2.586 2.586 0 0 1 2.583-2.583 2.586 2.586 0 0 1 2.583 2.583 2.586 2.586 0 0 1-2.583 2.583zm0-7.515a4.937 4.937 0 0 0-4.932 4.932 4.937 4.937 0 0 0 4.932 4.931 4.937 4.937 0 0 0 4.931-4.931 4.937 4.937 0 0 0-4.931-4.932z"/></g><g><path fill="#767676" d="M35.069 38.748a.078.078 0 0 1-.079.078H9.941a.078.078 0 0 1-.078-.078v-5.01c0-.043.035-.079.078-.079h25.05c.042 0 .078.036.078.079zm-.079-7.437H9.941a2.43 2.43 0 0 0-2.426 2.427v5.01a2.43 2.43 0 0 0 2.426 2.426h25.05a2.43 2.43 0 0 0 2.426-2.426v-5.01a2.43 2.43 0 0 0-2.427-2.427z"/></g><g><path fill="#ff6300" d="M66.3 37.573c-.733 0-1.33-.597-1.33-1.33 0-.734.597-1.331 1.33-1.331.735 0 1.332.597 1.332 1.33 0 .734-.597 1.331-1.331 1.331zm5.011-2.505h-1.524a3.685 3.685 0 0 0-3.486-2.504 3.685 3.685 0 0 0-3.486 2.504h-9.038a1.174 1.174 0 0 0 0 2.349h9.038a3.685 3.685 0 0 0 3.486 2.505 3.685 3.685 0 0 0 3.486-2.505h1.524a1.174 1.174 0 1 0 0-2.349z"/></g><g><path fill="#767676" d="M45.01 38.826a2.586 2.586 0 0 1-2.583-2.583 2.586 2.586 0 0 1 2.583-2.584 2.586 2.586 0 0 1 2.583 2.584 2.586 2.586 0 0 1-2.583 2.583zm0-7.515a4.937 4.937 0 0 0-4.932 4.932 4.937 4.937 0 0 0 4.932 4.931 4.937 4.937 0 0 0 4.931-4.931 4.937 4.937 0 0 0-4.931-4.932z"/></g><g><path fill="#767676" d="M35.069 52.524a.078.078 0 0 1-.079.079H9.941a.078.078 0 0 1-.078-.079v-5.01c0-.042.035-.078.078-.078h25.05c.042 0 .078.036.078.079zm-.079-7.436H9.941a2.43 2.43 0 0 0-2.426 2.427v5.01A2.43 2.43 0 0 0 9.94 54.95h25.05a2.43 2.43 0 0 0 2.426-2.427v-5.01a2.43 2.43 0 0 0-2.427-2.426z"/></g><g><path fill="#ff6300" d="M61.291 51.35c-.734 0-1.33-.597-1.33-1.33 0-.734.596-1.331 1.33-1.331.734 0 1.33.597 1.33 1.33 0 .734-.596 1.331-1.33 1.331zm10.02-2.505h-6.534a3.685 3.685 0 0 0-3.486-2.504 3.685 3.685 0 0 0-3.486 2.504h-4.028a1.174 1.174 0 0 0 0 2.349h4.028a3.685 3.685 0 0 0 3.486 2.505 3.685 3.685 0 0 0 3.486-2.505h6.534a1.174 1.174 0 0 0 0-2.349z"/></g><g><path fill="#767676" d="M45.01 52.603a2.586 2.586 0 0 1-2.583-2.583 2.586 2.586 0 0 1 2.583-2.584 2.586 2.586 0 0 1 2.583 2.584 2.586 2.586 0 0 1-2.583 2.583zm0-7.515a4.937 4.937 0 0 0-4.932 4.932 4.937 4.937 0 0 0 4.932 4.931 4.937 4.937 0 0 0 4.931-4.931 4.937 4.937 0 0 0-4.931-4.932z"/></g><g><path fill="#767676" d="M73.816 60.117H6.184a3.84 3.84 0 0 1-3.836-3.835V12.368h75.304v43.914a3.84 3.84 0 0 1-3.836 3.835zM6.184 2.348h67.632a3.84 3.84 0 0 1 3.836 3.836v3.836H2.348V6.184a3.84 3.84 0 0 1 3.836-3.836zM73.816 0H6.184A6.191 6.191 0 0 0 0 6.184v50.098a6.191 6.191 0 0 0 6.184 6.184h67.632A6.191 6.191 0 0 0 80 56.282V6.184A6.191 6.191 0 0 0 73.816 0z"/></g></g></g></svg>