<?xml version="1.0" standalone="no"?>
<!DOCTYPE svg PUBLIC "-//W3C//DTD SVG 20010904//EN"
 "http://www.w3.org/TR/2001/REC-SVG-20010904/DTD/svg10.dtd">
<svg version="1.0" xmlns="http://www.w3.org/2000/svg"
 width="512.000000pt" height="512.000000pt" viewBox="0 0 512.000000 512.000000"
 preserveAspectRatio="xMidYMid meet">
<metadata>
Created by potrace 1.11, written by Peter Selinger 2001-2013
</metadata>
<g transform="translate(0.000000,512.000000) scale(0.100000,-0.100000)"
fill="#000000" stroke="none">
<path d="M1220 4784 c0 -129 0 -4408 0 -4495 l0 -66 345 0 345 -1 0 577 0 577
923 922 922 922 -436 0 -435 0 -485 -485 -484 -486 -5 1038 c-6 1160 -1 1076
-78 1223 -110 209 -312 346 -538 366 l-74 7 0 -99z"/>
<path d="M2550 1429 c-40 -10 -95 -32 -123 -48 -56 -32 -167 -132 -185 -167
-15 -29 -62 32 608 -795 l158 -196 446 0 c332 -1 444 2 439 11 -6 9 -152 190
-572 706 -29 36 -106 131 -171 211 -65 81 -138 162 -162 182 -121 98 -286 134
-438 96z"/>
</g>
</svg>
